<svg xmlns="http://www.w3.org/2000/svg" viewBox="0 0 32 32" fill="none">
  <defs>
    <linearGradient id="bg" x1="6" y1="4" x2="28" y2="28" gradientUnits="userSpaceOnUse">
      <stop stop-color="#4BA0FA"/>
      <stop offset="0.55" stop-color="#3B8FE8"/>
      <stop offset="1" stop-color="#36fdfd"/>
    </linearGradient>
  </defs>
  <rect width="32" height="32" rx="9" fill="url(#bg)"/>
  <rect width="32" height="32" rx="9" fill="none" stroke="white" stroke-opacity="0.2" stroke-width="0.75"/>
  <rect x="5.5" y="8.5" width="10" height="2.75" rx="1.35" fill="white" fill-opacity="0.38"/>
  <rect x="5.5" y="12.75" width="8.5" height="2.75" rx="1.35" fill="white" fill-opacity="0.58"/>
  <rect x="5.5" y="17" width="7" height="2.75" rx="1.35" fill="white" fill-opacity="0.78"/>
  <circle cx="8.75" cy="9.875" r="0.65" fill="white" fill-opacity="0.9"/>
  <circle cx="8.75" cy="14.125" r="0.65" fill="white" fill-opacity="0.9"/>
  <circle cx="8.75" cy="18.375" r="0.65" fill="white" fill-opacity="0.9"/>
  <path d="M13 18.375 C15.5 18.375 16.5 16 18.25 16" stroke="white" stroke-width="1.5" stroke-linecap="round" stroke-opacity="0.75"/>
  <circle cx="21.5" cy="16" r="3.25" fill="white"/>
  <circle cx="21.5" cy="16" r="1.15" fill="#4BA0FA"/>
  <circle cx="26.25" cy="11.25" r="2" fill="white" fill-opacity="0.92"/>
  <circle cx="26.25" cy="20.75" r="2" fill="white" fill-opacity="0.92"/>
  <circle cx="27.75" cy="16" r="1.35" fill="white" fill-opacity="0.7"/>
  <path d="M24.4 14.1 L25.5 12.5 M24.4 17.9 L25.5 19.4 M24.75 16 H26.2" stroke="white" stroke-width="1.35" stroke-linecap="round" stroke-opacity="0.88"/>
</svg>
